<svg width="20" height="20" viewBox="0 0 20 20" fill="none" xmlns="http://www.w3.org/2000/svg">
<path d="M0.610095 0.100847C0.313555 0.244169 0.229535 0.333127 0.0862077 0.654367C0.00713038 0.832284 -0.0126389 0.950895 0.00713038 1.11893C0.0417267 1.39569 7.39592 19.2912 7.59361 19.5778C7.94946 20.0968 8.75506 20.1462 9.19493 19.6767C9.27895 19.5828 9.85226 18.3028 10.7962 16.0986C12.106 13.0394 12.2888 12.644 12.4667 12.4611C12.6496 12.2832 13.045 12.1004 16.1043 10.7907C18.6793 9.68861 19.5788 9.28335 19.6974 9.16968C20.162 8.71995 20.0779 7.85507 19.5392 7.54372C19.4552 7.49429 15.3333 5.78431 10.3712 3.74321C3.77813 1.02503 1.28719 0.0217723 1.10433 0.0069458C0.911577 -0.0128227 0.802846 0.0069458 0.610095 0.100847Z" fill="#86B0FA"/>
</svg>
