<svg width="25" height="28" viewBox="0 0 25 28" fill="none" xmlns="http://www.w3.org/2000/svg">
<path d="M5.6101 8.10085C5.31356 8.24417 5.22953 8.33313 5.08621 8.65437C5.00713 8.83228 4.98736 8.95089 5.00713 9.11893C5.04173 9.39569 12.3959 27.2912 12.5936 27.5778C12.9495 28.0968 13.7551 28.1462 14.1949 27.6767C14.279 27.5828 14.8523 26.3028 15.7962 24.0986C17.106 21.0394 17.2888 20.644 17.4667 20.4611C17.6496 20.2832 18.045 20.1004 21.1043 18.7907C23.6793 17.6886 24.5788 17.2833 24.6974 17.1697C25.162 16.7199 25.0779 15.8551 24.5392 15.5437C24.4552 15.4943 20.3333 13.7843 15.3712 11.7432C8.77813 9.02503 6.28719 8.02177 6.10433 8.00695C5.91158 7.98718 5.80285 8.00695 5.6101 8.10085Z" fill="#3F547A"/>
<rect width="2" height="17" fill="#3F547A"/>
</svg>
