<svg width="56" height="47" viewBox="0 0 56 47" fill="none" xmlns="http://www.w3.org/2000/svg">
<path d="M50.152 11.6025C50.1887 12.1129 50.1887 12.6204 50.1887 13.1279C50.1887 28.6592 38.7418 46.5558 17.8223 46.5558C11.3773 46.5558 5.38979 44.6279 0.351257 41.2796C1.26633 41.3875 2.14751 41.4254 3.09929 41.4254C8.21971 41.4382 13.1951 39.67 17.2236 36.4058C14.8495 36.3615 12.5482 35.5526 10.6408 34.0921C8.73347 32.6317 7.31535 30.5926 6.58447 28.2596C7.28771 28.3675 7.99379 28.4404 8.73375 28.4404C9.75332 28.4404 10.7785 28.2946 11.7303 28.0408C9.15389 27.5036 6.83717 26.0614 5.17407 23.9595C3.51097 21.8576 2.60417 19.2256 2.60787 16.5113V16.3654C4.12451 17.2375 5.88404 17.7829 7.74807 17.8558C6.18649 16.7842 4.90605 15.3301 4.02097 13.6231C3.13589 11.9162 2.67371 10.0096 2.67565 8.07334C2.67565 5.89167 3.23768 3.89083 4.22336 2.14667C7.08193 5.77798 10.6472 8.74872 14.6883 10.8665C18.7294 12.9843 23.1562 14.2019 27.6819 14.4404C27.5068 13.5654 27.3995 12.6583 27.3995 11.7483C27.3987 10.2053 27.6925 8.67725 28.2639 7.25153C28.8354 5.82581 29.6733 4.53039 30.7299 3.4393C31.7864 2.34821 33.0408 1.48287 34.4214 0.892729C35.8019 0.302591 37.2816 -0.000765273 38.7757 1.44977e-06C42.0519 1.44977e-06 45.0089 1.4175 47.0876 3.71C49.6345 3.20138 52.0768 2.24123 54.3065 0.872084C53.4576 3.58696 51.6792 5.88905 49.3047 7.34708C51.5635 7.08102 53.7711 6.46757 55.8542 5.52708C54.2984 7.86946 52.3705 9.92351 50.152 11.6025Z" fill="#061C3B"/>
</svg>
